<svg xmlns="http://www.w3.org/2000/svg" xmlns:xlink="http://www.w3.org/1999/xlink" data-v-0dd9719b="" version="1.0" width="100%" height="100%" viewBox="0 0 340.000000 250.000000" preserveAspectRatio="xMidYMid meet" color-interpolation-filters="sRGB" style="margin: auto;" class="mdl-js"> <rect data-v-0dd9719b="" x="0" y="0" width="100%" height="100%" fill="#ffffff" fill-opacity="1" class="background"/> <rect data-v-0dd9719b="" x="0" y="0" width="100%" height="100%" fill="url(#watermark)" fill-opacity="1" class="watermarklayer"/> <g data-v-0dd9719b="" fill="#030712" class="bordersvg b-d1" transform="translate(106.29500198364258,88.65999984741211)"><rect fill-opacity="0" stroke="#030712" stroke-width="2" x="0" y="0" width="119.40999603271484" height="64.68000030517578"/> <polyline fill-opacity="0" stroke="#030712" stroke-width="2" points="8,72.68000030517578 127.40999603271484,72.68000030517578 127.40999603271484,8"/> <g><g><rect data-gra="graph-name-bg" stroke-width="2" class="i-icon-bg" x="0" y="0" width="119.40999603271484" height="64.68000030517578" fill-opacity="0"/> <!----> <!----> </g> <g transform="translate(10,10)"><g data-gra="path-name" fill-rule="" class="tp-name"><g transform="scale(1)"><g><path d="M6.41-31.74L8.19-31.74 8.19-37.32Q8.19-38.66 8.33-39.93 8.47-41.2 8.98-42.2 9.49-43.2 10.44-43.81 11.39-44.43 13.01-44.43L13.01-44.43Q14.6-44.43 15.55-43.81 16.5-43.2 17-42.2 17.49-41.2 17.63-39.93 17.77-38.66 17.77-37.32L17.77-37.32 17.77-31.74 20.38-31.74Q21.2-31.74 22.03-31.66 22.85-31.58 23.5-31.2 24.15-30.82 24.55-30.06 24.95-29.29 24.95-27.93L24.95-27.93Q24.95-26.63 24.55-25.87 24.15-25.1 23.5-24.72 22.85-24.34 22.03-24.23 21.2-24.12 20.38-24.12L20.38-24.12 17.77-24.12 17.77-13.01Q17.77-12.38 17.82-11.66 17.87-10.95 18.15-10.35 18.44-9.74 19.01-9.35 19.58-8.95 20.63-8.95L20.63-8.95Q21.77-8.95 22.58-8.78 23.39-8.6 23.91-8.16 24.44-7.71 24.69-6.92 24.95-6.13 24.95-4.89L24.95-4.89Q24.95-3.62 24.36-2.7 23.77-1.78 22.79-1.17 21.8-0.57 20.5-0.29 19.2 0 17.77 0L17.77 0Q15.52 0 13.92-0.48 12.31-0.95 11.25-1.82 10.19-2.7 9.57-3.92 8.95-5.14 8.65-6.67 8.35-8.19 8.27-9.95 8.19-11.71 8.19-13.65L8.19-13.65 8.19-24.12 6.41-24.12Q5.59-24.12 4.78-24.23 3.97-24.34 3.33-24.72 2.7-25.1 2.3-25.87 1.9-26.63 1.9-27.93L1.9-27.93Q1.9-29.29 2.3-30.06 2.7-30.82 3.33-31.2 3.97-31.58 4.78-31.66 5.59-31.74 6.41-31.74L6.41-31.74ZM32.5-7.11L32.5-24.63Q32.5-25.96 32.64-27.23 32.79-28.5 33.29-29.5 33.8-30.5 34.75-31.12 35.71-31.74 37.32-31.74L37.32-31.74Q38.94-31.74 39.9-31.12 40.85-30.5 41.35-29.5 41.86-28.5 42.01-27.23 42.15-25.96 42.15-24.63L42.15-24.63 42.15-7.11Q42.15-5.78 42.01-4.49 41.86-3.21 41.35-2.21 40.85-1.21 39.9-0.6 38.94 0 37.32 0L37.32 0Q35.71 0 34.75-0.6 33.8-1.21 33.29-2.21 32.79-3.21 32.64-4.49 32.5-5.78 32.5-7.11L32.5-7.11ZM42.21-39.61L42.21-39.61Q42.21-37.17 40.94-35.98 39.67-34.79 37.39-34.79L37.39-34.79Q35.1-34.79 33.83-35.98 32.56-37.17 32.56-39.61L32.56-39.61Q32.56-42.15 33.83-43.29 35.1-44.43 37.39-44.43L37.39-44.43Q39.83-44.43 41.02-43.29 42.21-42.15 42.21-39.61ZM59.73-23.42L59.73-23.42Q59.73-22.79 60.14-22.25 60.56-21.71 61.27-21.22 61.98-20.73 62.92-20.25 63.86-19.77 64.87-19.3L64.87-19.3Q66.43-18.54 68.05-17.66 69.67-16.79 71-15.62 72.33-14.44 73.17-12.9 74.01-11.36 74.01-9.27L74.01-9.27Q74.01-7.36 73.46-5.9 72.9-4.44 71.98-3.38 71.06-2.32 69.84-1.62 68.62-0.92 67.27-0.51 65.92-0.1 64.52 0.08 63.13 0.25 61.89 0.25L61.89 0.25Q59.45 0.25 57.64-0.16 55.83-0.57 54.53-1.25 53.23-1.94 52.38-2.81 51.54-3.68 51.07-4.63 50.59-5.59 50.4-6.52 50.21-7.46 50.21-8.25L50.21-8.25Q50.21-10.16 51.27-11.04 52.34-11.93 54.53-11.93L54.53-11.93Q56.11-11.93 57.13-11.08 58.14-10.22 58.21-8.32L58.21-8.32Q58.24-7.68 58.57-7.3 58.91-6.92 59.43-6.68 59.95-6.44 60.59-6.36 61.22-6.28 61.83-6.28L61.83-6.28Q63.06-6.28 63.84-6.93 64.62-7.59 64.62-8.63L64.62-8.63Q64.62-9.52 64.1-10.3 63.57-11.08 62.71-11.74 61.86-12.41 60.76-13.03 59.67-13.65 58.53-14.28L58.53-14.28Q57.1-15.04 55.65-15.9 54.21-16.76 53.03-17.81 51.86-18.85 51.13-20.17 50.4-21.49 50.4-23.17L50.4-23.17Q50.4-25.64 51.21-27.31 52.02-28.98 53.57-30.01 55.13-31.04 57.37-31.48 59.6-31.93 62.46-31.99L62.46-31.99 62.97-31.99Q65.54-31.99 67.33-31.55 69.13-31.1 70.32-30.39 71.51-29.68 72.19-28.79 72.87-27.9 73.2-26.99 73.54-26.09 73.62-25.26 73.7-24.44 73.7-23.87L73.7-23.87Q73.7-22.92 73.3-22.3 72.9-21.68 72.25-21.31 71.6-20.95 70.78-20.8 69.95-20.66 69.06-20.63L69.06-20.63Q68.3-20.63 67.68-20.88 67.06-21.14 66.62-21.52 66.17-21.9 65.94-22.38 65.7-22.85 65.7-23.3L65.7-23.3Q65.63-24.5 64.73-25.14 63.83-25.77 62.52-25.77L62.52-25.77Q61.98-25.77 61.49-25.66 61-25.55 60.6-25.28 60.21-25.01 59.97-24.57 59.73-24.12 59.73-23.42ZM82.77-31.74L84.55-31.74 84.55-37.32Q84.55-38.66 84.69-39.93 84.84-41.2 85.34-42.2 85.85-43.2 86.8-43.81 87.76-44.43 89.38-44.43L89.38-44.43Q90.96-44.43 91.91-43.81 92.87-43.2 93.36-42.2 93.85-41.2 93.99-39.93 94.14-38.66 94.14-37.32L94.14-37.32 94.14-31.74 96.74-31.74Q97.56-31.74 98.39-31.66 99.21-31.58 99.86-31.2 100.52-30.82 100.91-30.06 101.31-29.29 101.31-27.93L101.31-27.93Q101.31-26.63 100.91-25.87 100.52-25.1 99.86-24.72 99.21-24.34 98.39-24.23 97.56-24.12 96.74-24.12L96.74-24.12 94.14-24.12 94.14-13.01Q94.14-12.38 94.18-11.66 94.23-10.95 94.52-10.35 94.8-9.74 95.37-9.35 95.94-8.95 96.99-8.95L96.99-8.95Q98.13-8.95 98.94-8.78 99.75-8.6 100.28-8.16 100.8-7.71 101.05-6.92 101.31-6.13 101.31-4.89L101.31-4.89Q101.31-3.62 100.72-2.7 100.13-1.78 99.15-1.17 98.17-0.57 96.87-0.29 95.56 0 94.14 0L94.14 0Q91.88 0 90.28-0.48 88.68-0.95 87.61-1.82 86.55-2.7 85.93-3.92 85.31-5.14 85.01-6.67 84.71-8.19 84.63-9.95 84.55-11.71 84.55-13.65L84.55-13.65 84.55-24.12 82.77-24.12Q81.95-24.12 81.14-24.23 80.33-24.34 79.69-24.72 79.06-25.1 78.66-25.87 78.27-26.63 78.27-27.93L78.27-27.93Q78.27-29.29 78.66-30.06 79.06-30.82 79.69-31.2 80.33-31.58 81.14-31.66 81.95-31.74 82.77-31.74L82.77-31.74Z" transform="translate(-1.9000000953674316, 44.43000030517578)"/></g> <!----> <!----> <!----> <!----> <!----> <!----> <!----></g></g> <!----></g></g></g><defs v-gra="od"/></svg>